<svg width="24" height="24" viewBox="0 0 24 24" fill="none" xmlns="http://www.w3.org/2000/svg"><path fill-rule="evenodd" clip-rule="evenodd" d="M9 4a1 1 0 0 0-2 0v1.6c0 .22.18.4.4.4h1.2a.4.4 0 0 0 .4-.4V4zm8 0a1 1 0 1 0-2 0v1.6c0 .22.18.4.4.4h1.2a.4.4 0 0 0 .4-.4V4z" fill="#737580"/><path fill-rule="evenodd" clip-rule="evenodd" d="M19 7V6h-.8a.2.2 0 0 1-.2-.2V4.2c0-.11.09-.2.2-.2h2.4c.22 0 .4.18.4.4V18a3 3 0 0 1-3 3H6a3 3 0 0 1-3-3V4.4c0-.22.18-.4.4-.4h2.4c.11 0 .2.09.2.2v1.6a.2.2 0 0 1-.2.2H5v1h14zm0 11V9H5v9a1 1 0 0 0 1 1h12a1 1 0 0 0 1-1zM10.2 4h3.6c.11 0 .2.09.2.2v1.6a.2.2 0 0 1-.2.2h-3.6a.2.2 0 0 1-.2-.2V4.2c0-.11.09-.2.2-.2zm4.4 7h1.8c.331 0 .6.18.6.4v1.2c0 .22-.269.4-.6.4h-1.8c-.331 0-.6-.18-.6-.4v-1.2c0-.22.269-.4.6-.4zm-7.2 0h5.2c.22 0 .4.18.4.4v1.2a.4.4 0 0 1-.4.4H7.4a.4.4 0 0 1-.4-.4v-1.2c0-.22.18-.4.4-.4zm.2 4h1.8c.331 0 .6.18.6.4v1.2c0 .22-.269.4-.6.4H7.6c-.331 0-.6-.18-.6-.4v-1.2c0-.22.269-.4.6-.4zm3.8 0h5.2c.22 0 .4.18.4.4v1.2a.4.4 0 0 1-.4.4h-5.2a.4.4 0 0 1-.4-.4v-1.2c0-.22.18-.4.4-.4z" fill="#737580"/></svg>