<svg width="24" height="24" viewBox="0 0 24 24" fill="none" xmlns="http://www.w3.org/2000/svg"><rect x="16" y="17" width="2" height="4" rx="1" fill="#474955"/><path fill-rule="evenodd" clip-rule="evenodd" d="M14.383 8H16v7a1 1 0 1 0 2 0V8h1.617c.211 0 .383-.19.383-.425a.458.458 0 0 0-.07-.244l-2.616-4.15c-.121-.192-.36-.239-.534-.104a.407.407 0 0 0-.094.104l-2.617 4.15a.456.456 0 0 0 .095.592c.064.05.14.077.22.077zm-4.766 8H8V4a1 1 0 0 0-2 0v12H4.383a.357.357 0 0 0-.22.077.456.456 0 0 0-.094.592l2.617 4.15c.026.04.058.076.094.104.174.135.413.088.534-.104l2.617-4.15a.458.458 0 0 0 .069-.244c0-.235-.172-.425-.383-.425z" fill="#474955"/></svg>