<svg id="Layer_1" data-name="Layer 1" xmlns="http://www.w3.org/2000/svg" viewBox="0 0 336 336"><path d="M78.75,84a51.59,51.59,0,1,0,43.83,78.65c-7.12-11.6-16.36-32.56-5.49-61.45A51.43,51.43,0,0,0,78.75,84Z" fill="#4c4e50"/><path d="M114.1,179.93c-.63.5-1.41,1.08-2.27,1.68a35.4,35.4,0,0,1-66.41-.31c-1.6-1.15-2.83-2.13-3.55-2.72-.26-.24-.54-.45-.79-.68l-.44.38C8.53,206.05,9,254.65,9,256.71l0,1.72h81.7c1.25-18.84,6.82-52.34,29.32-77.12a35.82,35.82,0,0,0-3.9-3.15c-.45.41-.91.81-1.37,1.2Z" fill="#4c4e50"/><path d="M220,176.37c-.52.47-1,.92-1.58,1.38l-.77.65a71.33,71.33,0,0,1-31.95,14c-1.52.21-3,.45-4.57.55-1.31.07-2.62.13-3.94.13a62.65,62.65,0,0,1-14-1.6c-14.25-3.62-25.14-12-28.23-14.62-.29-.26-.61-.5-.9-.77l-.5.44c-36.76,31.79-36.26,87.43-36.22,89.78l0,2H254.75l-.08-2.09C252.05,201.89,226.35,180.64,220,176.37Zm-21.87,43.54-22.11-11.27L154,219.91V192.54l22.1,11.82,22.11-11.82Z" fill="#4c4e50"/><path d="M118.43,126.86a59.18,59.18,0,0,0,59.1,59.07h0a59.1,59.1,0,1,0-59.12-59.07Z" fill="#4c4e50"/><path d="M260.66,255.46l66.31,0,0-1.55c0-1.85-.61-43.11-29.46-68.07l-.39-.35c-.93.87-1.9,1.7-2.89,2.49l-20.51,39.94L270.1,204.5l5.85-9.44a49.93,49.93,0,0,1-11.61,1.38c-1,0-2.07-.05-3.09-.11a50.19,50.19,0,0,1-5.54-.67c-.71-.12-1.42-.26-2.12-.41l5.76,9.25-3.84,22.31A159.93,159.93,0,0,1,260.66,255.46Z" fill="#4c4e50"/><path d="M266.33,190.1a46.35,46.35,0,1,0-27.74-83.44,62.11,62.11,0,0,1-11.41,61.84A46.32,46.32,0,0,0,266.33,190.1Z" fill="#4c4e50"/><rect width="336" height="336" fill="none"/></svg>