<svg id="Layer_1" data-name="Layer 1" xmlns="http://www.w3.org/2000/svg" xmlns:xlink="http://www.w3.org/1999/xlink" viewBox="0 0 336 336"><defs><clipPath id="clip-path"><rect width="336" height="336" fill="none"/></clipPath></defs><g clip-path="url(#clip-path)"><path d="M266,299.53a9.72,9.72,0,0,0,9.72-9.71V185.91h25.57a16.88,16.88,0,0,0,10.55-30.06l-33-28.64V79.56a10.08,10.08,0,0,0-10.08-10.09H247.84a10.09,10.09,0,0,0-10.09,10.09v12l-58.7-51a16.87,16.87,0,0,0-22.12,0L23.66,156.28a16.88,16.88,0,0,0,11.06,29.63H60.27V289.82A9.72,9.72,0,0,0,70,299.53h57.42V224a19.34,19.34,0,0,1,19.34-19.34h42.51A19.34,19.34,0,0,1,208.59,224v75.54Z" fill="#4c4e50"/></g></svg>