<svg width="24" height="24" viewBox="0 0 24 24" fill="none" xmlns="http://www.w3.org/2000/svg">
    <path fill-rule="evenodd" clip-rule="evenodd" d="M4.929 4.929c-3.905 3.905-3.905 10.237 0 14.142 3.905 3.905 10.237 3.905 14.142 0 3.905-3.905 3.905-10.237 0-14.142-3.905-3.905-10.237-3.905-14.142 0zm12.728 1.414A8 8 0 1 1 6.343 17.657 8 8 0 0 1 17.657 6.343zm-3.965 6.572l2.578-4.64a.4.4 0 0 0-.544-.545l-4.64 2.578a2 2 0 0 0-.778.777l-2.578 4.64a.4.4 0 0 0 .544.545l4.64-2.578a2 2 0 0 0 .778-.777zM13 6a1 1 0 1 1-2 0 1 1 0 0 1 2 0zm0 12a1 1 0 1 1-2 0 1 1 0 0 1 2 0zm-7-5a1 1 0 1 0 0-2 1 1 0 0 0 0 2zm12 0a1 1 0 1 0 0-2 1 1 0 0 0 0 2z" fill="#474955"/>
</svg>