<svg width="24" height="24" viewBox="0 0 24 24" fill="none" xmlns="http://www.w3.org/2000/svg"><path d="M5 12.8a.8.8 0 0 1 .8-.8H14v2H5.8a.8.8 0 0 1-.8-.8v-.4z" fill="#474955"/><path fill-rule="evenodd" clip-rule="evenodd" d="M16 5v1h2.172a2 2 0 0 1 1.414.586l1.828 1.828A2 2 0 0 1 22 9.828V16a2 2 0 0 1-1.103 1.788A2.5 2.5 0 1 1 16.05 18h-8.1a2.5 2.5 0 1 1-4.847-.212A2 2 0 0 1 2 16V5a2 2 0 0 1 2-2h10a2 2 0 0 1 2 2zm2.5 11h.7a.8.8 0 0 0 .8-.8v-4.543a2 2 0 0 0-.586-1.414l-.657-.657A2 2 0 0 0 17.343 8H16.8a.8.8 0 0 0-.8.8v6.4a.8.8 0 0 0 .8.8h1.7zM4.4 16h9.2a.4.4 0 0 0 .4-.4V5.4a.4.4 0 0 0-.4-.4H4.4a.4.4 0 0 0-.4.4v10.2c0 .22.18.4.4.4zm1.1 3a.5.5 0 1 0 0-1 .5.5 0 0 0 0 1zm13 0a.5.5 0 1 0 0-1 .5.5 0 0 0 0 1z" fill="#474955"/></svg>