<svg width="24" height="24" viewBox="0 0 24 24" fill="none" xmlns="http://www.w3.org/2000/svg"><path fill-rule="evenodd" clip-rule="evenodd" d="M13.503 5.086l3.41 3.411a.295.295 0 0 1-.207.503h-3.412A.294.294 0 0 1 13 8.706V5.294a.294.294 0 0 1 .503-.208z" fill="#474955"/><path fill-rule="evenodd" clip-rule="evenodd" d="M13.901 2H7a3 3 0 0 0-3 3v14a3 3 0 0 0 3 3h10a3 3 0 0 0 3-3V8.208a3 3 0 0 0-.842-2.084l-3.099-3.208A3 3 0 0 0 13.901 2zM6 5a1 1 0 0 1 1-1h6.901a1 1 0 0 1 .72.305l3.098 3.208a1 1 0 0 1 .281.695V19a1 1 0 0 1-1 1H7a1 1 0 0 1-1-1V5zm1 10a1 1 0 0 1 1-1h8a1 1 0 1 1 0 2H8a1 1 0 0 1-1-1zm1 2a1 1 0 1 0 0 2h8a1 1 0 1 0 0-2H8z" fill="#474955"/></svg>