<svg id="Layer_1" data-name="Layer 1" xmlns="http://www.w3.org/2000/svg" xmlns:xlink="http://www.w3.org/1999/xlink" viewBox="0 0 336 336"><defs><clipPath id="clip-path"><rect width="336" height="336" fill="none"/></clipPath></defs><g clip-path="url(#clip-path)"><path d="M164.25,249.65c-.46.43-.94.83-1.41,1.24s-1,.83-1.48,1.23c-1,.83-2.08,1.62-3.16,2.37l-22.35,45.92L131.39,274,138,263.33c-.8.18-1.61.35-2.43.49a53.35,53.35,0,0,1-6.36.75c-1.19.08-2.36.13-3.56.13a57.42,57.42,0,0,1-13.33-1.58L119,274l-4.2,26.91L90.08,252.24c-1.14-.91-2.24-1.87-3.31-2.86l-.46.39c-24,20.8-30.4,52.89-32.06,69.76H194.73C190.1,270.18,169.56,253.25,164.25,249.65Z" fill="#4c4e50"/><path d="M125.65,154.3a53.25,53.25,0,1,0,53.24,53.24A53.31,53.31,0,0,0,125.65,154.3Z" fill="#4c4e50"/><path d="M278.14,284.46a1.06,1.06,0,0,0,.46-.94,1,1,0,0,0-.57-.87c-.11-.06-9-4.68-11.38-10.92,3.12,3.09,6.82,4.36,11.69,5.26a1.05,1.05,0,0,0,1.16-1.43c-4.63-11.28-6.93-24.66-9.16-37.61-1.36-7.92-2.69-15.62-4.49-22.51a39.74,39.74,0,0,0-2.73-8.56,41.21,41.21,0,0,0-4.66-9,30.4,30.4,0,0,0-19.72-13,40.21,40.21,0,0,0-12.57-2,36.78,36.78,0,0,0-22.83,7.78c-6,3.79-10.46,9.5-13.79,17.78a60.53,60.53,0,0,0-4.65,15,38.22,38.22,0,0,0-.48,4.27c-.3,1.73-.58,3.51-.85,5.36-1.23,8.69-.34,20,1.34,30.8,7.05,11.25,14.07,28.9,16.54,55.7h80.3A99.06,99.06,0,0,0,273.64,287,44.61,44.61,0,0,0,278.14,284.46Zm-24.68-6.41c-.63.79-13.21,9-13.21,9l6.19,8.43-19.58,15.38,0,.07-.06,0-.06,0,0-.07-19.58-15.38,6.18-8.43s-12.58-8.2-13.21-9c-1.12-1.4,5.62-7.87,5.62-7.87l21,40.62,21-40.62S254.58,276.65,253.46,278.05Z" fill="#4c4e50"/><path d="M215.69,16.47H73.47a14,14,0,0,0-14,14.05v76.59a14,14,0,0,0,14,14h57.17l-1.89,24.05,20.92-24.05h66a14,14,0,0,0,14.05-14V30.52A14,14,0,0,0,215.69,16.47ZM151.1,84.35h-71a2.46,2.46,0,1,1,0-4.92h71a2.46,2.46,0,1,1,0,4.92Zm56.22-17H80.09a2.47,2.47,0,0,1,0-4.93H207.32a2.47,2.47,0,0,1,0,4.93Zm0-17H80.09a2.47,2.47,0,0,1,0-4.93H207.32a2.47,2.47,0,0,1,0,4.93Z" fill="#4c4e50"/><path d="M268.44,84.34H236.1V112A15.15,15.15,0,0,1,221,127.12H178.28v18.43a8.8,8.8,0,0,0,8.79,8.8h43.39l13.09,15.05-1.19-15.05h26.08a8.8,8.8,0,0,0,8.79-8.8V93.13A8.78,8.78,0,0,0,268.44,84.34Z" fill="#4c4e50"/></g></svg>