<svg width="24" height="24" viewBox="0 0 24 24" fill="none" xmlns="http://www.w3.org/2000/svg"><path fill-rule="evenodd" clip-rule="evenodd" d="M11 19H9v-4a2 2 0 0 1 2-2h2a2 2 0 0 1 2 2v4h-2v-4h-2v4z" fill="#474955"/><path fill-rule="evenodd" clip-rule="evenodd" d="M8 10.236A2.99 2.99 0 0 1 6 11v7a1 1 0 0 0 1 1h10a1 1 0 0 0 1-1v-7c-.768 0-1.47-.289-2-.764A2.989 2.989 0 0 1 14 11c-.768 0-1.47-.289-2-.764A2.989 2.989 0 0 1 10 11a2.99 2.99 0 0 1-2-.764zM9 8a1 1 0 0 0 2 0V5H9v3zM6 3h12a3 3 0 0 1 3 3v2c0 .889-.386 1.687-1 2.236V18a3 3 0 0 1-3 3H7a3 3 0 0 1-3-3v-7.764C3.386 9.686 3 8.888 3 8V6a3 3 0 0 1 3-3zm7 2v3a1 1 0 1 0 2 0V5h-2zM7 8V5H6a1 1 0 0 0-1 1v2a1 1 0 0 0 2 0zm10 0a1 1 0 1 0 2 0V6a1 1 0 0 0-1-1h-1v3z" fill="#474955"/></svg>