<svg width="24" height="24" viewBox="0 0 24 24" fill="none" xmlns="http://www.w3.org/2000/svg"><path fill-rule="evenodd" clip-rule="evenodd" d="M10 2a1 1 0 0 0-1 1v2a1 1 0 0 0 1 1h4a1 1 0 0 0 1-1V3a1 1 0 0 0-1-1h-4z" fill="#474955"/><path fill-rule="evenodd" clip-rule="evenodd" d="M4 6v12h16V6H4zM3 4a1 1 0 0 0-1 1v14a1 1 0 0 0 1 1h18a1 1 0 0 0 1-1V5a1 1 0 0 0-1-1H3z" fill="#474955"/><path fill-rule="evenodd" clip-rule="evenodd" d="M11 14.333v1a.667.667 0 0 1-.667.667H5.667A.667.667 0 0 1 5 15.333v-1c0-1.008.498-1.9 1.26-2.444a2.333 2.333 0 1 1 3.479 0A2.996 2.996 0 0 1 11 14.333zm-3-3a1 1 0 1 0 0-2 1 1 0 0 0 0 2zm1.667 3.2v-.2a1.667 1.667 0 0 0-3.334 0v.2c0 .074.06.134.134.134h3.066c.074 0 .134-.06.134-.134zM12.5 13a.5.5 0 0 0-.5.5v1a.5.5 0 0 0 .5.5h3a.5.5 0 0 0 .5-.5v-1a.5.5 0 0 0-.5-.5h-3zm5 0a.5.5 0 0 0-.5.5v1a.5.5 0 0 0 .5.5h1a.5.5 0 0 0 .5-.5v-1a.5.5 0 0 0-.5-.5h-1zM12 9.5a.5.5 0 0 1 .5-.5h6a.5.5 0 0 1 .5.5v1a.5.5 0 0 1-.5.5h-6a.5.5 0 0 1-.5-.5v-1z" fill="#474955"/></svg>