<?xml version="1.0" encoding="UTF-8"?>
<!DOCTYPE svg PUBLIC "-//W3C//DTD SVG 1.1//EN" "http://www.w3.org/Graphics/SVG/1.1/DTD/svg11.dtd">
<!-- Creator: CorelDRAW -->
<svg xmlns="http://www.w3.org/2000/svg" xml:space="preserve" width="8.5in" height="5.5in" version="1.1" style="shape-rendering:geometricPrecision; text-rendering:geometricPrecision; image-rendering:optimizeQuality; fill-rule:evenodd; clip-rule:evenodd"
viewBox="0 0 8500 5500"
 xmlns:xlink="http://www.w3.org/1999/xlink"
 xmlns:xodm="http://www.corel.com/coreldraw/odm/2003">
 <defs>
  <style type="text/css">
   <![CDATA[
    .fil0 {fill:#4B4D4F}
   ]]>
  </style>
 </defs>
 <g id="Layer_x0020_1">
  <metadata id="CorelCorpID_0Corel-Layer"/>
  <g id="_1998927934672">
   <path class="fil0" d="M784.41 415.98c0,454.03 748.81,93.91 890.09,328.39 26.71,44.33 56.79,140.25 78.93,197.15l698.48 1795.17c148.55,381.86 180.54,359.76 80.71,701.88 -77.7,266.3 -95.48,451.77 158.83,670.93 122.8,105.83 274.62,172.07 516.21,172.07l3066.16 0c411.56,0 418.82,-432.35 47.98,-464.72 -150.94,-13.18 -2517.42,-1.27 -2842.14,-1.27 -74.81,0 -359.56,14.91 -411.24,-18.4 -16.28,-10.49 -58.57,-63.77 -58.57,-76.91 0,-46.79 65.85,-258.95 86.01,-286.41 55.72,-75.86 203.14,-63.09 346.71,-63.09l2559.34 0.07c303.02,1.5 304.89,-132.47 400.21,-377.34l426.49 -1096.18c45.52,-117.02 199.39,-469.48 199.39,-570.54 0,-94.42 -83.06,-174.48 -161.83,-200.28 -127.34,-41.7 -1021.34,-22.13 -1198.15,-22.13 -328.63,0 -3160.46,13.77 -3227.85,-9.76 -92.6,-32.33 -116.02,-137.16 -148.97,-221.89l-204.63 -523.69c-37.05,-74.32 -122.45,-144.86 -238.88,-144.86l-803.63 0c-132.46,0 -259.64,97.24 -259.64,211.81z"/>
   <path class="fil0" d="M2366.94 4917c0,144.98 27.43,252.06 150.95,357.87 92.88,79.56 212.4,121.79 334.07,129.3l79.43 0c191.83,-11.8 375.72,-108.85 455.12,-281.02 171.55,-372.01 -253.47,-740.56 -691.5,-592.34 -154.41,52.25 -328.07,209.89 -328.07,386.19z"/>
   <path class="fil0" d="M5532.02 4917c0,144.98 27.43,252.06 150.94,357.87 92.88,79.56 212.4,121.79 334.07,129.3l79.43 0c191.83,-11.8 375.72,-108.85 455.12,-281.02 171.55,-372.01 -253.47,-740.56 -691.5,-592.34 -154.41,52.25 -328.06,209.89 -328.06,386.19z"/>
  </g>
 </g>
</svg>
