<svg id="Layer_1" data-name="Layer 1" xmlns="http://www.w3.org/2000/svg" viewBox="0 0 24 24"><defs><style>.cls-1{fill-rule:evenodd;}</style></defs><path class="cls-1" d="M3.69,3.82a.92.92,0,0,1,1-.2,3.94,3.94,0,0,1,3.82-.24A9.45,9.45,0,0,0,3.23,8.64a4,4,0,0,1,.26-3.78.94.94,0,0,1,.2-1Zm6.5,15.41-.14,0,.13-.49.14,0-.13.49ZM13.82,5.66l-.13,0,.13-.49.13,0-.13.49Zm-7,11.61.36-.35.1.1-.36.35a7.2,7.2,0,0,0,4.69,2.07V18.07h.8v1.37a7.2,7.2,0,0,0,4.69-2.07L16.74,17l.1-.1.35.35a7.2,7.2,0,0,0,2.07-4.69H17.89v-.8h1.37a7.2,7.2,0,0,0-2.07-4.69l-.35.36-.1-.1L17.09,7A7.25,7.25,0,0,0,12.4,4.92V6.3h-.8V4.92A7.25,7.25,0,0,0,6.91,7l.36.36-.1.1-.36-.36a7.25,7.25,0,0,0-2.07,4.69H6.12v.8H4.74a7.25,7.25,0,0,0,2.07,4.69ZM5,14.13,5,14l.49-.13,0,.13L5,14.13ZM18.56,10.5l0-.14.49-.13,0,.14-.49.13ZM5,10.37l0-.14.49.13,0,.14L5,10.37ZM18.52,14l0-.13.49.13,0,.13L18.52,14ZM10.05,5.17l.14,0,.13.49-.14,0-.13-.49Zm3.64,13.57.13,0,.13.49-.13,0-.13-.49ZM12,11.39a.79.79,0,0,1,.52.19L17,9.28l.11.2-4.3,2.77a.79.79,0,0,1-1.58-.07.69.69,0,0,1,0-.25L6.83,9.38,7,9.18l4.41,2.54a.77.77,0,0,1,.64-.33ZM5.66,15.74l.72-.41.09.15-.72.41-.09-.15ZM17.54,8.89l.72-.42.08.15L17.62,9l-.08-.15Zm.8,6.85-.08.15-.72-.41.08-.15.72.41ZM6.47,8.89l-.72-.42-.09.15L6.38,9l.09-.15Zm1.82,9.55.42-.72.15.08-.42.72-.15-.08ZM15.15,6.56l.41-.72.15.08-.41.73-.15-.09Zm.56,11.88-.15.08-.41-.72.15-.08.41.72ZM8.86,6.56l-.42-.72-.15.08.42.73.15-.09ZM12,3.27a8.91,8.91,0,1,0,8.91,8.91A8.91,8.91,0,0,0,12,3.27ZM5.47,19A8.94,8.94,0,0,0,7.1,20.27l-.52.53a1,1,0,0,1-1.44,0h0a1,1,0,0,1,0-1.44L5.47,19Zm13.06,0,.33.34a1,1,0,0,1,0,1.44h0a1,1,0,0,1-1.44,0l-.52-.53A8.61,8.61,0,0,0,18.53,19Zm1.78-15.2a1,1,0,0,1,.2,1,4,4,0,0,1,.26,3.78,9.47,9.47,0,0,0-5.31-5.26,4,4,0,0,1,3.81.24A1,1,0,0,1,20.31,3.82Z"/></svg>