<svg width="24" height="24" viewBox="0 0 24 24" fill="none" xmlns="http://www.w3.org/2000/svg"><path fill-rule="evenodd" clip-rule="evenodd" d="M7 6.08L14.31 9 17 7.92 9.69 5 7 6.08zm9 6.65v-2.25l2-.8v2.028a1.2 1.2 0 0 1-.754 1.114l-.697.279a.4.4 0 0 1-.549-.372zm0 3.562c0-.49.299-.932.754-1.114l.697-.279a.4.4 0 0 1 .549.372v2.249l-2 .8v-2.028z" fill="#474955"/><path fill-rule="evenodd" clip-rule="evenodd" d="M12.371 2.072l9 3.6A1 1 0 0 1 22 6.6v10.8a1 1 0 0 1-.629.928l-9 3.6a1 1 0 0 1-.742 0l-9-3.6A1 1 0 0 1 2 17.4V6.6a1 1 0 0 1 .629-.928l9-3.6a1 1 0 0 1 .742 0zm7.126 14.852a.8.8 0 0 0 .503-.743V9.172a.2.2 0 0 0-.274-.185l-6.223 2.489a.8.8 0 0 0-.503.743v7.009a.2.2 0 0 0 .274.185l6.223-2.489zm-8.771 2.49a.2.2 0 0 0 .274-.186v-7.01a.8.8 0 0 0-.503-.742l-6.223-2.49A.2.2 0 0 0 4 9.173v7.01a.8.8 0 0 0 .503.742l6.223 2.49zm-5.57-12.6a.2.2 0 0 0 0 .372l6.547 2.618a.8.8 0 0 0 .594 0l6.546-2.618a.2.2 0 0 0 0-.372l-6.546-2.618a.8.8 0 0 0-.594 0L5.157 6.814z" fill="#474955"/></svg>