<svg id="Layer_1" data-name="Layer 1" xmlns="http://www.w3.org/2000/svg" viewBox="0 0 336 336"><path d="M256.12,56.44A47.55,47.55,0,0,0,237.38,18a2.6,2.6,0,0,0-4.17,2.06V53.22l-24.8,15.24-24.8-15.24V20.07A2.6,2.6,0,0,0,179.45,18a47.67,47.67,0,0,0,10,81.65V234.39a47.65,47.65,0,0,0-10,81.61,2.6,2.6,0,0,0,4.17-2.06V280.78l24.8-15.23,24.8,15.23v33.16a2.6,2.6,0,0,0,4.16,2.07,47.66,47.66,0,0,0-10-81.65V99.61A47.68,47.68,0,0,0,256.12,56.44Z" fill="#4c4e50"/><path d="M131.85,155.77H116.94V67.11l6.53-10.33-7.89-39.31H99.81L91.93,56.78l6.52,10.33v88.66H83.54A4,4,0,0,0,79.88,160v7.15a4,4,0,0,0,3.66,4.18h.83a33.51,33.51,0,0,0-4.49,16.92V288c0,16.87,12,30.56,26.82,30.56h2c14.82,0,26.83-13.69,26.83-30.56V188.2a33.42,33.42,0,0,0-4.5-16.92h.83a4,4,0,0,0,3.67-4.18V160A4,4,0,0,0,131.85,155.77ZM93,297.9H87V188.2h6Zm17.34,0h-6V188.2h6Zm17.34,0h-6V188.2h6Z" fill="#4c4e50"/><rect width="336" height="336" fill="none"/></svg>