<svg id="Layer_1" data-name="Layer 1" xmlns="http://www.w3.org/2000/svg" viewBox="0 0 300.39 250.22"><path d="M255.16,293.11h38.46a24.6,24.6,0,0,0,24.58-24.57V115.6A24.61,24.61,0,0,0,293.62,91H242.48V75.64a32.78,32.78,0,0,0-32.74-32.75H126.27A32.79,32.79,0,0,0,93.52,75.64V91H42.38A24.61,24.61,0,0,0,17.8,115.6V268.53A24.6,24.6,0,0,0,42.38,293.1H255.16Zm-111.93-6.83H139.1V97.85h4.13Zm42.32,0h-35.1V97.85h35.1Zm11.35,0h-4.13V97.85h4.13ZM118.1,75.64a8.19,8.19,0,0,1,8.17-8.17h83.47a8.18,8.18,0,0,1,8.16,8.17V91H118.1Z" transform="translate(-17.8 -42.89)" fill="#4b4d4f"/></svg>