<svg width="24" height="24" viewBox="0 0 24 24" fill="none" xmlns="http://www.w3.org/2000/svg"><path fill-rule="evenodd" clip-rule="evenodd" d="M6.4 11h7.2c.22 0 .4.18.4.4v1.2a.4.4 0 0 1-.4.4H6.4a.4.4 0 0 1-.4-.4v-1.2c0-.22.18-.4.4-.4z" fill="#474955"/><path fill-rule="evenodd" clip-rule="evenodd" d="M19 22H5a3 3 0 0 1-3-3V5a3 3 0 0 1 3-3h10a3 3 0 0 1 3 3v8h1a3 3 0 0 1 3 3v3a3 3 0 0 1-3 3zm-3-2V5a1 1 0 0 0-1-1H5a1 1 0 0 0-1 1v14a1 1 0 0 0 1 1h11zM6.4 6h1.2c.22 0 .4.18.4.4v1.2a.4.4 0 0 1-.4.4H6.4a.4.4 0 0 1-.4-.4V6.4c0-.22.18-.4.4-.4zM18 15v4a1 1 0 1 0 2 0v-3a1 1 0 0 0-1-1h-1zM9.4 6h4.2c.22 0 .4.18.4.4v1.2a.4.4 0 0 1-.4.4H9.4a.4.4 0 0 1-.4-.4V6.4c0-.22.18-.4.4-.4zm4.2 10H6.4a.4.4 0 0 0-.4.4v1.2c0 .22.18.4.4.4h7.2a.4.4 0 0 0 .4-.4v-1.2a.4.4 0 0 0-.4-.4z" fill="#474955"/></svg>