<svg id="Layer_1" data-name="Layer 1" xmlns="http://www.w3.org/2000/svg" viewBox="0 0 282.21 282.22"><path d="M84,168a84,84,0,1,0,84-84A84.08,84.08,0,0,0,84,168Zm142.5-5.11a58.74,58.74,0,1,1-63.62-53.4A58.74,58.74,0,0,1,226.52,162.89Z" transform="translate(-26.9 -26.89)" fill="#4b4d4f"/><path d="M283.16,214.43l13.88-.54a8.57,8.57,0,0,0,7.43-5.91L309,186a8.57,8.57,0,0,0-4.44-8.38l-12.51-6.06a10.45,10.45,0,0,1-5.37-8.45s0-1.62-.35-5.41l-.11-1.31c-.18-1.42,1.91-4,4.65-5.73l11.77-7.43a8.58,8.58,0,0,0,3.48-8.84l-7-21.32a8.57,8.57,0,0,0-8-5l-13.92,1c-3.23.23-7.06-1.53-8.52-3.93s-4.45-10.74-2.94-13.6l6.47-12.3a8.54,8.54,0,0,0-1.41-9.37l-16.72-15a8.56,8.56,0,0,0-9.49-.37l-11.52,7.82c-2.68,1.81-6.87,2.2-9.32.86s-9.24-7.1-9.37-10.33L213.88,39a8.57,8.57,0,0,0-5.9-7.42L186,27a8.55,8.55,0,0,0-8.39,4.43l-6.06,12.52a10.49,10.49,0,0,1-8.44,5.38s-1.62,0-5.41.34l-1.32.13c-1.42.17-4-1.92-5.72-4.66l-7.43-11.79a8.56,8.56,0,0,0-8.83-3.47l-21.33,7a8.57,8.57,0,0,0-5,8l1,13.93c.23,3.23-1.53,7.06-3.93,8.52s-10.73,4.46-13.59,3L79.19,63.76a8.54,8.54,0,0,0-9.37,1.4l-15,16.74a8.55,8.55,0,0,0-.35,9.47l7.82,11.53c1.81,2.67,2.2,6.87.86,9.31s-7.11,9.24-10.34,9.37l-13.9.54A8.56,8.56,0,0,0,31.53,128L27,150a8.58,8.58,0,0,0,4.44,8.39l12.52,6a10.47,10.47,0,0,1,5.36,8.45s0,1.62.35,5.41l.13,1.32c.17,1.42-1.92,4-4.66,5.72l-11.79,7.43a8.56,8.56,0,0,0-3.47,8.83l7,21.32a8.54,8.54,0,0,0,8,5l13.92-1c3.22-.24,7.06,1.53,8.51,3.93s4.46,10.74,3,13.6l-6.47,12.3a8.54,8.54,0,0,0,1.4,9.38l16.73,15a8.58,8.58,0,0,0,9.49.35l11.52-7.81c2.68-1.82,6.87-2.21,9.31-.85s9.24,7.1,9.37,10.33l.54,13.89a8.59,8.59,0,0,0,5.91,7.43L150,309a8.57,8.57,0,0,0,8.39-4.43l6.07-12.52a10.5,10.5,0,0,1,8.45-5.38s1.61,0,5.41-.34l1.3-.11c1.43-.19,4,1.9,5.72,4.64l7.44,11.8a8.56,8.56,0,0,0,8.83,3.48l21.33-7a8.57,8.57,0,0,0,5-8l-1-13.93c-.24-3.23,1.53-7.06,3.92-8.52s10.74-4.45,13.6-3l12.31,6.47a8.56,8.56,0,0,0,9.38-1.41l15-16.73a8.56,8.56,0,0,0,.36-9.48l-7.82-11.52c-1.82-2.68-2.2-6.87-.86-9.32S279.93,214.55,283.16,214.43ZM168,263.7A95.7,95.7,0,1,1,263.7,168,95.81,95.81,0,0,1,168,263.7Z" transform="translate(-26.9 -26.89)" fill="#4b4d4f"/></svg>