<svg width="18" height="19" viewBox="0 0 18 19" fill="none" xmlns="http://www.w3.org/2000/svg"><path fill-rule="evenodd" clip-rule="evenodd" d="M3.669 7.158a9.186 9.186 0 0 1 2.985-4.957 7.35 7.35 0 0 0-4.759 4.95.259.259 0 0 1-.249.189H.152a.152.152 0 0 1-.148-.186A9.17 9.17 0 0 1 8.944 0a9.17 9.17 0 0 1 8.943 7.158.149.149 0 0 1-.145.182h-1.504a.251.251 0 0 1-.242-.183 7.35 7.35 0 0 0-4.76-4.956 9.186 9.186 0 0 1 2.983 4.951.154.154 0 0 1-.15.188h-1.493a.257.257 0 0 1-.248-.187 7.358 7.358 0 0 0-2.467-3.71v3.53a.367.367 0 0 1-.366.367h-1.1a.367.367 0 0 1-.367-.367v-3.53A7.358 7.358 0 0 0 5.56 7.16a.249.249 0 0 1-.239.18H3.814a.149.149 0 0 1-.145-.18zM0 8.716c0 .246.01.49.028.732a.201.201 0 0 0 .201.185h17.43a.204.204 0 0 0 .204-.187 9.543 9.543 0 0 0 0-1.466.199.199 0 0 0-.2-.182H.226a.197.197 0 0 0-.198.181A9.537 9.537 0 0 0 0 8.716zm7.248 5.047H7.11c-.38 0-.688.41-.688.917 0 .507.308.918.688.918h.138c.05 0 .092-.055.092-.123v-1.59c0-.068-.041-.122-.092-.122zM0 10.92V9.84h1.8v1.08c0 .497.628.9 1.125.9s1.125-.403 1.125-.9a.9.9 0 1 1 1.8 0c0 .494.63.9 1.125.9s1.125-.406 1.125-.9a.9.9 0 1 1 1.8 0c0 .494.63.9 1.125.9s1.125-.406 1.125-.9a.9.9 0 1 1 1.8 0c0 .497.628.9 1.125.9s1.125-.403 1.125-.9V9.84H18v1.08a2.7 2.7 0 0 1-1.8 2.546v2.853h.9a.9.9 0 1 1 0 1.8H.9a.9.9 0 0 1 0-1.8h.9v-2.853A2.701 2.701 0 0 1 0 10.92zm14.4 2.173c-.608 0-1.064-.125-1.368-.374-.912.45-1.553.45-2.052.45-.494 0-.718-.052-1.12-.146l-.02-.005v2.851c0 .249.408.45.912.45h2.736c.504 0 .912-.201.912-.45v-2.776zm-6.24-.075l-.02.005c-.402.094-.626.146-1.12.146-.502 0-1.14 0-2.052-.45-.304.25-.76.374-1.368.374v2.776c0 .249.408.45.912.45h2.736c.504 0 .912-.201.912-.45V13.02z" fill="#737580"/></svg>