<svg id="Layer_1" data-name="Layer 1" xmlns="http://www.w3.org/2000/svg" viewBox="0 0 336 336"><rect x="122.67" y="47.64" width="90.67" height="71.9" rx="4.69" fill="#4c4e50"/><path d="M324.31,216.45H243a4.7,4.7,0,0,0-4.69,4.7v62.52a4.7,4.7,0,0,0,4.69,4.69h81.28a4.69,4.69,0,0,0,4.69-4.69V221.15A4.69,4.69,0,0,0,324.31,216.45Z" fill="#4c4e50"/><path d="M208.64,216.45H127.36a4.69,4.69,0,0,0-4.69,4.7v62.52a4.69,4.69,0,0,0,4.69,4.69h81.28a4.69,4.69,0,0,0,4.69-4.69V221.15A4.69,4.69,0,0,0,208.64,216.45Z" fill="#4c4e50"/><path d="M93,216.45H11.69A4.69,4.69,0,0,0,7,221.15v62.52a4.69,4.69,0,0,0,4.69,4.69H93a4.7,4.7,0,0,0,4.69-4.69V221.15A4.7,4.7,0,0,0,93,216.45Z" fill="#4c4e50"/><path d="M293.51,162.53a4.68,4.68,0,0,0-4.69-4.69H177.38V132.05a4.7,4.7,0,0,0-4.69-4.7h-9.38a4.7,4.7,0,0,0-4.69,4.7v25.79H46.87a4.69,4.69,0,0,0-4.69,4.69v1.68a5,5,0,0,0-.11.56v37.62a4.69,4.69,0,0,0,4.69,4.69h9.38a4.69,4.69,0,0,0,4.69-4.69v-25.8h97.79v25.8a4.69,4.69,0,0,0,4.69,4.69h9.38a4.69,4.69,0,0,0,4.69-4.69v-25.8h97.4v26.68a4.69,4.69,0,0,0,4.69,4.68h9.38a4.69,4.69,0,0,0,4.69-4.68V163.9c0-.06,0-.11,0-.17Z" fill="#4c4e50"/><rect width="336" height="336" fill="none"/></svg>