<svg id="Layer_1" data-name="Layer 1" xmlns="http://www.w3.org/2000/svg" viewBox="0 0 336 336"><path d="M233.21,178.27c-.77.7-1.55,1.38-2.33,2s-1.6,1.36-2.43,2c-1.68,1.35-3.42,2.65-5.2,3.89L186.5,261.74l-7.33-43.48L190,200.78c-1.32.29-2.65.56-4,.79a92.48,92.48,0,0,1-10.46,1.25c-1.94.12-3.89.21-5.86.21a94.27,94.27,0,0,1-21.91-2.61l11,17.85L152,262.53l-40.72-80c-1.87-1.49-3.69-3.06-5.45-4.69l-.74.65C50.52,225.62,51.27,308.12,51.33,311.61l.05,2.92H284.67l-.11-3.1C280.68,216.12,242.57,184.6,233.21,178.27Z" fill="#4c4e50"/><path d="M169.72,21.47A87.57,87.57,0,1,0,257.29,109,87.66,87.66,0,0,0,169.72,21.47Z" fill="#4c4e50"/><rect width="336" height="336" fill="none"/></svg>