<?xml version="1.0" encoding="utf-8"?>
<!-- Generator: Adobe Illustrator 23.0.0, SVG Export Plug-In . SVG Version: 6.00 Build 0)  -->
<svg version="1.1" id="Layer_1" xmlns="http://www.w3.org/2000/svg" xmlns:xlink="http://www.w3.org/1999/xlink" x="0px" y="0px"
	 viewBox="0 0 600 600" style="enable-background:new 0 0 600 600;" xml:space="preserve">
<style type="text/css">
	.st0{clip-path:url(#SVGID_2_);}
	.st1{fill:#1888C9;}
	.st2{fill:#15BFF1;}
</style>
<g>
	<defs>
		<rect id="SVGID_1_" width="600" height="600"/>
	</defs>
	<clipPath id="SVGID_2_">
		<use xlink:href="#SVGID_1_"  style="overflow:visible;"/>
	</clipPath>
	<g class="st0">
		<polygon class="st1" points="364.57,208.13 364.57,134.22 395.96,134.22 395.96,103.06 333.85,103.06 333.85,103.17 
			333.56,103.17 333.52,220.95 461.04,348.46 300,509.5 138.97,348.46 266.6,220.95 266.6,103.06 204.49,103.06 204.49,134.22 
			235.45,134.22 235.45,208.11 95.08,348.46 300,553.37 504.92,348.46 		"/>
		<polygon class="st2" points="316.89,154.24 310.17,154.24 310.08,128.85 306.29,131.89 304.39,127.72 316.89,119.01 		"/>
		<polygon class="st2" points="330.45,81.87 323.74,81.87 323.64,56.48 319.85,59.51 317.95,55.34 330.45,46.63 		"/>
		<path class="st2" d="M304.39,180.25v16.29c0,2.78-1.08,5.21-3.22,7.29c-2.15,2.08-4.8,3-7.96,2.75c-3.15,0.13-5.78-0.83-7.87-2.84
			c-2.08-2.02-3.31-4.55-3.7-7.58v-16.11c0.26-3.15,1.58-5.58,3.98-7.29c2.4-1.7,4.92-2.61,7.58-2.7c2.91,0,5.4,0.77,7.48,2.34
			C302.79,173.97,304.02,176.58,304.39,180.25 M298.71,196.35l-0.05-16.3c-1.17-3.12-2.97-4.68-5.4-4.68c-2.4,0-4.26,1.63-5.59,4.88
			v15.91c1.29,3.25,3.14,4.88,5.54,4.88C295.68,201.03,297.51,199.47,298.71,196.35"/>
		<path class="st2" d="M296.97,86.3v16.29c0,2.77-1.07,5.21-3.22,7.29c-2.14,2.08-4.8,3-7.96,2.74c-3.16,0.13-5.77-0.82-7.86-2.84
			c-2.09-2.02-3.32-4.55-3.69-7.58v-16.1c0.25-3.15,1.58-5.58,3.97-7.29c2.4-1.71,4.93-2.61,7.58-2.7c2.91,0,5.4,0.78,7.49,2.34
			C295.36,80.03,296.59,82.64,296.97,86.3 M291.3,102.4l-0.05-16.29c-1.17-3.12-2.97-4.69-5.41-4.69c-2.4,0-4.26,1.62-5.59,4.88
			v15.91c1.3,3.25,3.15,4.88,5.54,4.88C288.26,107.09,290.09,105.53,291.3,102.4"/>
		<path class="st2" d="M232.59,311.38c-2.4,0-4.26,1.63-5.59,4.88v15.91c1.29,3.25,3.14,4.88,5.54,4.88c2.47,0,4.3-1.57,5.49-4.69
			l-0.05-16.29C236.82,312.95,235.03,311.38,232.59,311.38"/>
		<path class="st2" d="M191.34,336.71c-2.4,0-4.27,1.63-5.6,4.88v15.92c1.3,3.25,3.14,4.87,5.55,4.87c2.46,0,4.29-1.56,5.49-4.68
			l-0.04-16.3C195.56,338.28,193.77,336.71,191.34,336.71"/>
		<path class="st2" d="M368.25,388.31c2.46,0,4.29-1.56,5.5-4.69l-0.05-16.29c-1.17-3.13-2.96-4.69-5.4-4.69
			c-2.4,0-4.26,1.62-5.58,4.87v15.91C364.02,386.69,365.85,388.31,368.25,388.31"/>
		<path class="st2" d="M276.21,344c-2.4,0-4.27,1.62-5.59,4.87v15.91c1.29,3.25,3.14,4.88,5.54,4.88c2.46,0,4.29-1.56,5.49-4.69
			l-0.04-16.29C280.45,345.56,278.64,344,276.21,344"/>
		<path class="st2" d="M276.21,443.32c-2.4,0-4.27,1.63-5.59,4.88v9.46l9.4,9.4c0.63-0.73,1.19-1.6,1.63-2.76l-0.04-16.29
			C280.45,444.89,278.64,443.32,276.21,443.32"/>
		<path class="st2" d="M270.62,250.27c1.29,3.25,3.14,4.87,5.54,4.87c2.46,0,4.29-1.57,5.49-4.69l-0.04-16.29
			c-0.34-0.9-0.74-1.62-1.17-2.26l-9.82,9.82V250.27z"/>
		<path class="st2" d="M329.73,408.11l-0.05-16.29c-1.18-3.12-2.97-4.69-5.4-4.69c-2.41,0-4.26,1.63-5.59,4.87v15.91
			c1.29,3.25,3.14,4.88,5.54,4.88C326.69,412.8,328.53,411.24,329.73,408.11"/>
		<path class="st2" d="M324.23,305.87c2.46,0,4.3-1.56,5.5-4.69l-0.05-16.29c-1.18-3.12-2.97-4.69-5.4-4.69
			c-2.41,0-4.26,1.62-5.59,4.87V301C319.98,304.25,321.83,305.87,324.23,305.87"/>
		<path class="st2" d="M323.48,443.87l-3.79,3.03l-1.89-4.17l12.51-8.7v22.71l107.05-107.04L330.3,242.64v12.17h-6.74l-0.07-18.97
			l-3.57-3.58l-0.24,0.19l-0.36-0.79L300,212.35l-15.24,15.25c1.4,1.59,2.28,3.81,2.59,6.76v16.29c0,2.78-1.07,5.21-3.23,7.3
			c-2.14,2.08-4.8,3-7.96,2.75c-3.16,0.13-5.78-0.82-7.86-2.84c-2.08-2.02-3.32-4.54-3.7-7.57v-2.54L162.66,349.69l101.95,101.96
			v-3.64c0.25-3.15,1.58-5.58,3.98-7.29c2.4-1.71,4.93-2.61,7.58-2.7c2.91,0,5.39,0.78,7.48,2.35c2.08,1.55,3.32,4.17,3.7,7.83
			v16.29c0,2.63-1.01,4.95-2.93,6.96L300,487.03l23.55-23.55L323.48,443.87z M202.46,357.89c0,2.78-1.07,5.21-3.22,7.3
			c-2.15,2.08-4.8,2.99-7.95,2.74c-3.16,0.12-5.78-0.82-7.86-2.85c-2.09-2.02-3.32-4.54-3.7-7.57V341.4
			c0.25-3.15,1.58-5.59,3.98-7.29c2.41-1.7,4.93-2.6,7.58-2.69c2.9,0,5.4,0.77,7.48,2.34c2.08,1.57,3.31,4.18,3.69,7.84V357.89z
			 M238.6,393.23h-6.72l-0.1-25.38l-3.79,3.03l-1.9-4.17l12.5-8.72V393.23z M243.73,332.56c0,2.78-1.08,5.21-3.23,7.3
			c-2.15,2.08-4.8,3-7.96,2.74c-3.15,0.13-5.77-0.82-7.86-2.83c-2.08-2.02-3.32-4.55-3.7-7.58v-16.1c0.25-3.16,1.58-5.59,3.98-7.3
			c2.4-1.7,4.92-2.6,7.57-2.69c2.91,0,5.4,0.78,7.48,2.34c2.09,1.56,3.32,4.18,3.7,7.85V332.56z M282.23,281.41v35.24h-6.72
			l-0.1-25.39l-3.79,3.03l-1.89-4.17L282.23,281.41z M282.23,424.52h-6.72l-0.1-25.38l-3.79,3.03l-1.89-4.17l12.5-8.71V424.52z
			 M287.35,365.16c0,2.78-1.07,5.21-3.23,7.3c-2.14,2.08-4.8,3-7.96,2.75c-3.16,0.13-5.78-0.83-7.86-2.84
			c-2.08-2.02-3.32-4.55-3.7-7.58v-16.1c0.25-3.16,1.58-5.59,3.98-7.29c2.4-1.71,4.93-2.61,7.58-2.71c2.91,0,5.39,0.79,7.48,2.35
			c2.08,1.57,3.32,4.18,3.7,7.84V365.16z M413.79,332.07v35.23h-6.73l-0.09-25.38l-3.79,3.03l-1.9-4.16L413.79,332.07z
			 M374.31,297.79v35.24h-6.72l-0.1-25.39l-3.77,3.03l-1.9-4.17L374.31,297.79z M356.7,367.33c0.25-3.16,1.58-5.59,3.98-7.29
			c2.41-1.71,4.93-2.61,7.58-2.7c2.9,0,5.4,0.78,7.48,2.35c2.08,1.56,3.31,4.18,3.69,7.83v16.29c0,2.78-1.07,5.21-3.22,7.29
			c-2.14,2.09-4.79,3-7.95,2.75c-3.16,0.13-5.78-0.82-7.85-2.84c-2.09-2.02-3.33-4.55-3.71-7.58V367.33z M312.68,284.89
			c0.24-3.15,1.58-5.59,3.97-7.29c2.4-1.7,4.93-2.61,7.58-2.7c2.9,0,5.4,0.78,7.48,2.35c2.08,1.56,3.31,4.18,3.69,7.84v16.3
			c0,2.78-1.07,5.21-3.22,7.29c-2.14,2.09-4.79,3-7.95,2.74c-3.16,0.13-5.78-0.82-7.86-2.84c-2.09-2.02-3.32-4.54-3.69-7.58V284.89z
			 M330.3,332.06v35.24h-6.74l-0.09-25.38l-3.79,3.03l-1.89-4.17L330.3,332.06z M312.68,407.92v-16.1c0.24-3.15,1.58-5.59,3.97-7.29
			c2.4-1.71,4.93-2.6,7.58-2.71c2.9,0,5.4,0.79,7.48,2.35c2.08,1.56,3.31,4.18,3.69,7.83v16.3c0,2.77-1.07,5.21-3.22,7.29
			c-2.14,2.08-4.79,3-7.95,2.75c-3.16,0.12-5.78-0.82-7.86-2.84C314.29,413.47,313.05,410.95,312.68,407.92"/>
	</g>
</g>
</svg>
